<svg xmlns="http://www.w3.org/2000/svg" shape-rendering="geometricPrecision" text-rendering="geometricPrecision" image-rendering="optimizeQuality" fill-rule="evenodd" clip-rule="evenodd" viewBox="0 0 512 274.128"><path fill="#F2472C" d="M451.513 34.625c0-10.875 1.959-18.5 5.876-22.833 3.917-4.334 9.876-6.501 17.917-6.501 3.833 0 7.041.501 9.501 1.418 2.458.959 4.501 2.167 6.041 3.709a19.54 19.54 0 013.709 4.792c.916 1.666 1.625 3.625 2.166 5.875 1.084 4.251 1.583 8.709 1.583 13.375 0 10.375-1.75 18.001-5.291 22.793-3.501 4.792-9.542 7.208-18.167 7.208-4.793 0-8.709-.792-11.667-2.292-2.959-1.541-5.417-3.792-7.291-6.749-1.375-2.125-2.458-5.001-3.208-8.626-.794-3.71-1.169-7.71-1.169-12.169zm15.75.043c0 7.292.626 12.251 1.917 14.917 1.291 2.666 3.167 4 5.625 4 1.625 0 3-.542 4.208-1.709 1.167-1.124 2.041-2.916 2.625-5.374.542-2.459.833-6.251.833-11.418 0-7.583-.625-12.709-1.916-15.334s-3.208-3.917-5.792-3.917c-2.626 0-4.542 1.334-5.709 4-1.208 2.668-1.791 7.626-1.791 14.835zM240.095 98.127c0 7.75 1.959 13.793 5.833 18.167 3.916 4.375 8.665 6.583 14.332 6.583 5.208 0 9.583-2 13.084-5.959 3.501-3.959 5.25-9.876 5.25-17.75 0-8.041-1.833-14.208-5.458-18.417-3.666-4.208-8.167-6.334-13.583-6.334-5.501 0-10.165 2.041-13.915 6.167-3.71 4.085-5.543 9.918-5.543 17.543zm123.833-24.833c0 18.167 1.583 30.583 4.833 37.251 3.208 6.666 7.876 9.959 14 9.959 4.041 0 7.501-1.417 10.459-4.208 2.959-2.833 5.124-7.334 6.501-13.417 1.417-6.125 2.083-15.626 2.083-28.543 0-18.959-1.583-31.666-4.833-38.251-3.208-6.5-8.041-9.792-14.459-9.792-6.582 0-11.291 3.334-14.25 9.96-2.876 6.707-4.334 19.04-4.334 37.041zm-39.292-.084c0-27.124 4.876-46.125 14.666-56.96C349.052 5.417 363.97 0 383.928 0c9.626 0 17.501 1.208 23.667 3.542 6.167 2.374 11.208 5.458 15.083 9.25 3.917 3.793 7 7.792 9.208 11.959 2.251 4.209 4.041 9.084 5.418 14.667 2.666 10.625 4 21.75 4 33.334 0 25.917-4.375 44.834-13.167 56.834-8.75 12-23.834 18-45.292 18-12 0-21.709-1.916-29.125-5.75-7.417-3.833-13.459-9.458-18.208-16.875-3.417-5.251-6.125-12.418-8.041-21.542-1.878-9.084-2.835-19.167-2.835-30.209zm-11.501-38.751l-39.501 4.833c-1.041-5.501-2.75-9.334-5.167-11.583-2.459-2.25-5.459-3.375-9-3.375-6.416 0-11.416 3.208-14.958 9.709-2.583 4.709-4.542 14.666-5.75 29.959 4.75-4.833 9.626-8.374 14.583-10.666 4.999-2.291 10.791-3.458 17.332-3.458 12.75 0 23.502 4.542 32.292 13.625 8.793 9.125 13.208 20.666 13.208 34.626 0 9.417-2.207 18-6.666 25.833-4.458 7.793-10.625 13.709-18.501 17.709-7.916 4-17.792 6-29.709 6-14.29 0-25.748-2.417-34.374-7.334-8.625-4.875-15.541-12.625-20.708-23.291-5.167-10.666-7.75-24.793-7.75-42.418 0-25.75 5.417-44.626 16.291-56.626C225.553 6 240.594 0 259.843 0c11.375 0 20.334 1.291 26.917 3.917 6.583 2.625 12.084 6.501 16.417 11.5 4.375 5.084 7.709 11.417 9.958 19.042zM110.3 43.709l-37.501-6.666c3.125-11.917 9.084-21.084 17.96-27.458C99.592 3.21 112.134 0 128.344 0c18.625 0 32.041 3.458 40.375 10.418 8.291 6.958 12.417 15.708 12.417 26.208 0 6.167-1.708 11.749-5.041 16.709-3.374 4.999-8.417 9.375-15.208 13.124 5.501 1.375 9.75 2.959 12.625 4.792 4.75 2.917 8.418 6.793 11.042 11.542 2.625 4.792 3.959 10.459 3.959 17.084 0 8.334-2.167 16.292-6.501 23.959-4.375 7.626-10.626 13.501-18.792 17.626-8.168 4.124-18.917 6.167-32.251 6.167-12.959 0-23.208-1.542-30.667-4.583-7.501-3.041-13.666-7.501-18.501-13.417-4.833-5.876-8.542-13.292-11.124-22.209l39.708-5.291c1.583 8 3.96 13.583 7.251 16.709 3.251 3.083 7.417 4.666 12.501 4.666 5.292 0 9.709-1.959 13.251-5.833 3.541-3.876 5.291-9.084 5.291-15.583 0-6.625-1.708-11.75-5.084-15.375-3.374-3.625-8-5.458-13.833-5.458-3.083 0-7.375.749-12.792 2.334l2.041-28.376c2.167.334 3.876.501 5.084.501 5.124 0 9.417-1.666 12.833-4.959 3.417-3.291 5.167-7.167 5.167-11.709 0-4.375-1.291-7.833-3.876-10.375-2.582-2.582-6.167-3.875-10.625-3.875-4.667 0-8.418 1.417-11.334 4.207-2.959 2.748-4.917 7.665-5.96 14.706z"/><path fill="#1775BB" d="M455.43 125.961c44.001 22.375 33.501 54.125-44.418 73.418-22.084 5.459-47.042 10.418-74.418 12.459v25.208c30.459-2.125 58.793-9.125 83.584-15.125 117.168-28.375 113.085-79.042 39-107.627-1.041 4.125-2.29 8-3.748 11.667zm-399.713 4.541c-92.626 50.834 156.878 81.71 213.085 81.209v-31l46.709 46.667-46.709 46.75v-29.04c-112.959 4.29-378.837-68.418-218.918-128.752a93.058 93.058 0 005.417 13.333l.416.833z"/></svg>