<svg viewBox="0 0 512 512" xmlns="http://www.w3.org/2000/svg" fill-rule="evenodd" clip-rule="evenodd" stroke-linejoin="round" stroke-miterlimit="2"><path d="M14 273.484v-5.457h18.59v6.93c-.005.068-.005.136-.005.205 0 3.448 2.836 6.284 6.284 6.284.226 0 .452-.012.674-.037 3.146.396 6.098-1.73 6.723-4.84a9.037 9.037 0 00-.12-5.332c-3.607-9.284-28.19-13.5-31.307-28.011a26.3 26.3 0 01-.117-9.68c1.915-11.648 11.87-15.863 24.22-15.863 9.833 0 23.393 2.36 23.393 17.98v5.087H45.056v-4.465c.012-.15.016-.303.016-.456 0-3.3-2.714-6.018-6.017-6.018-.158 0-.315.008-.472.02-3.041-.302-5.836 1.827-6.353 4.84a9.948 9.948 0 00.121 3.72c2.017 8.304 28.302 12.773 31.178 27.777.722 3.892.758 7.877.117 11.78-1.682 11.903-11.991 16.368-24.462 16.368-13.084 0-25.184-4.84-25.184-20.832zm225.208-.25v-5.453h18.348v6.82c-.004.101-.008.206-.008.307 0 3.392 2.79 6.183 6.183 6.183.222 0 .443-.012.661-.036 3.11.435 6.066-1.638 6.716-4.711a8.671 8.671 0 00-.117-5.211c-3.481-9.172-27.83-13.387-30.94-27.899a25.673 25.673 0 01-.12-9.547c1.919-11.531 11.873-15.73 23.981-15.73 9.717 0 23.147 2.48 23.147 17.856v4.96h-17.15v-4.363a6.26 6.26 0 00.021-.476c0-3.287-2.706-5.99-5.99-5.99-.129 0-.254.004-.383.012-2.988-.35-5.76 1.743-6.235 4.711a9.947 9.947 0 00.117 3.719c1.916 8.313 27.939 12.653 30.826 27.531.718 3.848.759 7.793.117 11.657-1.677 11.906-11.87 16.246-24.22 16.246-12.959 0-24.954-4.836-24.954-20.586zm65.715 2.61a28.822 28.822 0 01-.12-4.72v-51.332h17.508v52.946c-.024.911.016 1.823.117 2.73a6.797 6.797 0 006.594 5.2 6.798 6.798 0 006.599-5.2 19.31 19.31 0 00.12-2.73v-52.946h17.51v51.332c0 1.368-.122 3.97-.122 4.715-1.21 13.387-11.394 17.747-24.103 17.747-12.709 0-22.901-4.356-24.103-17.747v.004zm144.147-.747a38.313 38.313 0 01-.238-4.71V240.27c0-1.243.117-3.473.238-4.715 1.557-13.387 11.991-17.606 24.345-17.606 12.233 0 23.022 4.215 24.224 17.606.145 1.569.182 3.142.117 4.715v2.355h-17.505v-3.969a15.104 15.104 0 00-.237-2.73 7.186 7.186 0 00-6.897-5.22 7.186 7.186 0 00-6.897 5.22 15.22 15.22 0 00-.238 3.343v32.739c-.02.911.02 1.823.12 2.73a6.904 6.904 0 007.313 5.207c3.323.319 6.389-1.94 7.074-5.207.162-.9.202-1.819.121-2.73v-10.43h-7.074V251.16h24.462v19.218a38.317 38.317 0 01-.242 4.711c-1.21 13.02-12.1 17.61-24.345 17.61s-23.143-4.586-24.341-17.602zM205.054 291.34l-.5-66.215-11.991 66.215h-17.509l-11.874-66.215-.476 66.215h-17.27l1.435-71.422h28.185l8.748 55.797 8.76-55.797h28.182l1.557 71.422h-17.247zm-92.1 0l-9.37-66.215-9.6 66.215H75.282l12.705-71.422h30.823l12.713 71.422h-18.57zm293.08-.742l-17.403-59.394.96 59.394h-17.03v-70.68h25.665l16.31 57.536-.963-57.536h17.145v70.68h-24.684z" fill-rule="nonzero"/></svg>